<svg xmlns="http://www.w3.org/2000/svg" width="376" height="393" viewBox="0 0 376 393" preserveAspectRatio="xMidYMid meet">
    <g fill="#000000" transform="translate(0,393) scale(0.1,-0.1)">
        <path d="M2257 3819c-8 -19 -29 -73 -47 -121l-32 -87-32 16c-17 9 -48 27 -70 40
      -37 24 -54 26 -465 53 -234 15 -427 27 -428 26 -1 -1 88 -51 198 -111l200 -110
      -163 -11c-157 -10 -174 -14 -463 -92c-165 -45 -309 -86 -320 -91
      -14 -7 5 -10 65 -10 179 -2 430 -15 423 -22 -4 -4 -161 -69 -348 -145 -187
      -75 -344 -140 -348 -144 -4 -4 75 -17 175 -30 101 -12 199 -25 218 -29 33 -7
      27 -11 -245 -178 -154 -95 -287 -176 -295 -181 -8 -5 53 1 135 14 83 13 156
      23 163 21 8 -1 -23 -53 -79 -132 -105 -149 -138 -198 -274 -420 -54 -88 -120
      -195 -147 -239 -27 -43 -43 -74 -36 -70 21 13 496 372 578 438 110 88 105 84
      92 61 -6 -11 -61 -96 -121 -190 -165 -253 -165 -235 1 -160 78 36 143 63 145
      61 2 -2 -19 -88 -46 -192 -28 -103 -49 -189 -47 -191 2 -2 87 91 191 207 103
      116 189 210 191 208 1 -2 -13 -151 -33 -332l-37 -327-255 -237c-141 -130
      -286 -265 -322 -299 -36 -35 -74 -70 -85 -79 -16 -13 144 65 695 339l124 62
      130 175c71 96 132 177 134 180 4 5 42 -34 266 -269l127 -134 0 -123 0 -124
      -91 -261c-49 -144 -89 -262 -87 -264 3 -3 310 142 335 158 9 6 240 381 269
      438 2 3 -87 81 -196 173c-110 93 -200 170 -200 173 0 3 15 -4 33 -15 78 -48
      408 -232 415 -232 4 0 73 23 154 51l148 52 271 379c150 208 275 380 278 382
      3 2 81 -26 172 -61l167 -65 26 -48 26 -48 -21 -56 -22 -56 101 -107c55 -60
      111 -118 124 -130l24 -23 32 109c18 60 32 122 32 138 0 15 -23 87 -51 160
      l-51 131 -73 30c-40 16 -161 84 -268 151l-196 121 -86 0 -86 0 -284 -225
      -285 -225 -317 200c-175 109 -325 204 -333 209 -38 27 56 -18 337 -158 166
      -83 305 -151 309 -151 10 0 113 83 114 92 0 4 -82 83 -183 176 -229 212 -284
      283 -322 410 -20 64 -28 169 -17 222l8 45 19 -35c48 -93 110 -143 207 -170
      l62 -17 30 -71 30 -72 -13 -94c-7 -52 -11 -98 -8 -103 3 -5 50 -24 104 -43
      l99 -34 108 106 109 106 -46 237 -46 237 19 39c11 21 20 47 20 57 0 29 -108
      320 -136 366 -19 34 -24 37 -24 19 0 -13 -3 -23 -7 -23 -5 0 -43 69 -87 152
      l-79 152 -42 -120c-23 -65 -46 -118 -51 -117 -5 1 -48 10 -94 20 -61 13 -126
      18 -230 17 -124 0 -160 -4 -253 -28 -426 -108 -700 -377 -792 -776l-15 -65 6
      53c2 29 16 91 30 139c125 431 406 691 818 758 124 20 367 20 457 -1 39 -9 72
      -14 74 -12 1 1 20 59 41 127l39 125 137 -215c75 -118 146 -241 159 -274 12
      -33 25 -63 28 -68 4 -4 15 38 25 93l18 100 -52 158c-29 86 -56 161 -60 166
      -5 5 -20 -15 -35 -43l-26 -52 -18 23c-10 13 -62 86 -115 163 -54 77 -102
      144 -107 149 -5 6 -14 -5 -22 -25z m277 -905c36 -83 37 -89 26 -131 -7 -24
      -16 -46 -20 -48 -17 -10 -44 84 -49 173 -3 50 -4 92 -1 92 3 0 22 -39 44 -86z"/>
    </g>
</svg>
